<svg xmlns="http://www.w3.org/2000/svg" version="1.1" xmlns:xlink="http://www.w3.org/1999/xlink" xmlns:svgjs="http://svgjs.dev/svgjs" width="1000" height="1000" viewBox="0 0 1000 1000"><rect width="1000" height="1000" fill="#000000"></rect><g transform="matrix(0.7,0,0,0.7,149.5757575867114,455.827009769837)"><svg viewBox="0 0 396 50" data-background-color="#ffffff" preserveAspectRatio="xMidYMid meet" height="126" width="1000" xmlns="http://www.w3.org/2000/svg" xmlns:xlink="http://www.w3.org/1999/xlink"><g id="tight-bounds" transform="matrix(1,0,0,1,0.24000000619685125,0.041377789955248545)"><svg viewBox="0 0 395.52 49.91724452854642" height="49.91724452854642" width="395.52"><g><svg viewBox="0 0 397.4975999999999 50.166830751189146" height="49.91724452854642" width="395.52"><g><svg viewBox="0 0 397.4975999999999 50.166830751189146" height="50.166830751189146" width="397.4975999999999"><g id="textblocktransform"><svg viewBox="0 0 397.4975999999999 50.166830751189146" height="50.166830751189146" width="397.4975999999999" id="textblock"><g><rect width="397.4975999999999" height="2.151617145711417" x="0" y="26.39349338885757" fill="#ffffff" opacity="1" stroke-width="0" stroke="transparent" fill-opacity="1" class="rect-o-0" data-fill-palette-color="primary" rx="1%" id="o-0" data-palette-color="#ba3b0a"></rect></g><g transform="matrix(1,0,0,1,0.9887999999999693,0)"><svg viewBox="0 0 395.52 23.858865861187052" height="23.858865861187052" width="395.52"><g transform="matrix(1,0,0,1,0,0)"><svg width="395.52" viewBox="1.2699999809265137 -32.90999984741211 553.6199951171875 33.400001525878906" height="23.858865861187052" data-palette-color="#ba3b0a"><path d="M23.58-6.74L23.58-6.74 23.58-14.89Q23.58-14.89 23.49-15.09L23.49-15.09Q18.9-15.19 17.77-15.19L17.77-15.19Q11.72-15.14 11.72-15.04L11.72-15.04 11.82-14.94 11.82-6.93Q11.82-4.35 12.21-2.83L12.21-2.83Q12.3-2.49 13.55-2.05 14.79-1.61 15.23-1.61L15.23-1.61Q15.43-1.61 15.45-0.88 15.48-0.15 15.33 0.2L15.33 0.2Q15.09 0.2 12.33 0 9.57-0.2 8.3-0.2 7.03-0.2 4.61-0.02 2.2 0.15 1.46 0.2L1.46 0.2Q1.27 0 1.27-0.63L1.27-0.63Q1.27-1.61 1.37-1.61L1.37-1.61Q1.95-1.61 3.22-2 4.49-2.39 4.64-2.78L4.64-2.78Q4.98-4.1 4.98-6.74L4.98-6.74 4.98-25.39Q4.98-28.37 4.64-29.2L4.64-29.2Q4.39-29.74 3.27-30.13 2.15-30.52 1.56-30.52L1.56-30.52Q1.37-30.52 1.37-31.49L1.37-31.49Q1.37-32.23 1.46-32.32L1.46-32.32Q8.2-32.03 8.25-32.03L8.25-32.03Q9.52-32.03 15.38-32.32L15.38-32.32Q15.53-32.08 15.53-31.3 15.53-30.52 15.33-30.52L15.33-30.52Q14.89-30.52 13.62-30.1 12.35-29.69 12.21-29.35L12.21-29.35Q11.82-28.32 11.82-25.2L11.82-25.2 11.82-18.26 11.91-18.12Q16.7-18.02 17.77-18.02L17.77-18.02Q19.09-18.02 23.49-18.12L23.49-18.12Q23.58-18.21 23.58-18.31L23.58-18.31 23.58-25.39Q23.58-27.93 23.24-29.25L23.24-29.25Q23.1-29.64 21.9-30.08 20.7-30.52 20.17-30.52L20.17-30.52Q19.97-30.52 19.95-31.32 19.92-32.13 20.12-32.32L20.12-32.32Q26.86-32.03 27.39-32.03L27.39-32.03Q28.13-32.03 33.98-32.32L33.98-32.32Q34.13-31.88 34.13-31.45L34.13-31.45Q34.13-30.52 33.89-30.52L33.89-30.52Q33.45-30.52 32.18-30.1 30.91-29.69 30.81-29.35L30.81-29.35Q30.42-27.88 30.42-25.2L30.42-25.2 30.42-6.93Q30.42-4.3 30.81-2.78L30.81-2.78Q30.91-2.44 32.15-2.05 33.4-1.66 33.84-1.66L33.84-1.66Q34.03-1.66 34.03-0.63L34.03-0.63Q34.03-0.24 33.89 0.2L33.89 0.2Q33.45 0.2 31.01 0 28.56-0.2 27.29-0.2L27.29-0.2Q25.98-0.2 23.32-0.02 20.65 0.15 20.02 0.2L20.02 0.2Q19.82 0 19.85-0.81 19.87-1.61 20.07-1.61L20.07-1.61Q20.61-1.61 21.88-2.05 23.14-2.49 23.29-2.88L23.29-2.88Q23.58-4 23.58-6.74ZM51.66-29.83L51.66-29.83Q49.07-29.83 47.36-27.95 45.65-26.07 44.99-23.34 44.33-20.61 44.33-17.09L44.33-17.09Q44.33-14.6 44.8-12.18 45.26-9.77 46.21-7.45 47.17-5.13 48.97-3.69 50.78-2.25 53.17-2.25L53.17-2.25Q56.83-2.25 58.66-5.96 60.5-9.67 60.5-15.09L60.5-15.09Q60.5-17.77 60.08-20.19 59.67-22.61 58.74-24.88 57.81-27.15 56-28.49 54.2-29.83 51.66-29.83ZM41.33-4.35Q36.72-9.18 36.72-16.02 36.72-22.85 41.33-27.71 45.94-32.57 52.39-32.57 58.84-32.57 63.47-27.71 68.11-22.85 68.11-16.02 68.11-9.18 63.47-4.35 58.84 0.49 52.39 0.49 45.94 0.49 41.33-4.35ZM85.59-29.83L85.59-29.83Q83-29.83 81.29-27.95 79.58-26.07 78.93-23.34 78.27-20.61 78.27-17.09L78.27-17.09Q78.27-14.6 78.73-12.18 79.19-9.77 80.15-7.45 81.1-5.13 82.91-3.69 84.71-2.25 87.1-2.25L87.1-2.25Q90.77-2.25 92.6-5.96 94.43-9.67 94.43-15.09L94.43-15.09Q94.43-17.77 94.01-20.19 93.6-22.61 92.67-24.88 91.74-27.15 89.94-28.49 88.13-29.83 85.59-29.83ZM75.26-4.35Q70.65-9.18 70.65-16.02 70.65-22.85 75.26-27.71 79.88-32.57 86.32-32.57 92.77-32.57 97.41-27.71 102.05-22.85 102.05-16.02 102.05-9.18 97.41-4.35 92.77 0.49 86.32 0.49 79.88 0.49 75.26-4.35ZM111.91-32.03L111.91-32.03Q112.88-32.03 118.74-32.32L118.74-32.32Q118.89-31.88 118.89-31.45L118.89-31.45Q118.89-30.52 118.69-30.52L118.69-30.52Q118.25-30.52 116.94-30.1 115.62-29.69 115.52-29.35L115.52-29.35Q115.18-28.03 115.18-25.2L115.18-25.2 115.18-17.48Q115.18-17.29 115.28-17.19 115.37-17.09 115.47-17.09L115.47-17.09 115.52-17.09 115.86-17.09Q116.2-17.09 118.01-18.95L118.01-18.95Q122.21-23.24 126.9-28.61L126.9-28.61Q127.29-29.1 127.29-29.74L127.29-29.74Q127.29-30.22 126.21-30.42 125.14-30.62 124.36-30.62L124.36-30.62Q124.16-30.62 124.06-31.3 123.97-31.98 124.06-32.32L124.06-32.32Q129.48-32.03 130.61-32.03L130.61-32.03Q131.19-32.03 137.05-32.32L137.05-32.32Q137.15-32.13 137.13-31.37 137.1-30.62 136.96-30.62L136.96-30.62 136.66-30.57Q136.37-30.57 136.1-30.54 135.83-30.52 135.39-30.44 134.95-30.37 134.56-30.3 134.17-30.22 133.68-30.05 133.2-29.88 132.81-29.69 132.41-29.49 132-29.22 131.58-28.96 131.29-28.61L131.29-28.61 122.89-19.34Q122.26-18.6 122.84-17.92L122.84-17.92 134.42-2.83Q134.95-2.2 136.1-1.9 137.25-1.61 137.83-1.61L137.83-1.61Q138.03-1.61 138.03-0.68L138.03-0.68Q138.03-0.2 137.83 0.2L137.83 0.2Q137.79 0.2 134.73 0 131.68-0.2 130.46-0.2L130.46-0.2Q127.82-0.2 123.53 0.2L123.53 0.2Q123.33 0 123.33-0.81 123.33-1.61 123.53-1.61L123.53-1.61Q124.06-1.61 124.94-1.9 125.82-2.2 125.82-2.59L125.82-2.59Q125.82-4.15 117.13-13.96L117.13-13.96Q116.98-14.11 116.45-14.11L116.45-14.11Q115.18-14.11 115.18-13.28L115.18-13.28 115.18-7.13Q115.18-4.35 115.57-2.83L115.57-2.83Q115.67-2.49 116.91-2.05 118.16-1.61 118.6-1.61L118.6-1.61Q118.79-1.61 118.79-0.68L118.79-0.68Q118.79-0.1 118.69 0.2L118.69 0.2Q118.35 0.2 115.76 0 113.18-0.2 111.91-0.2L111.91-0.2Q110.59-0.2 108.05-0.02 105.51 0.15 104.83 0.2L104.83 0.2Q104.63 0 104.63-0.59L104.63-0.59Q104.63-1.61 104.78-1.61L104.78-1.61Q105.31-1.61 106.58-2.03 107.85-2.44 108-2.83L108-2.83Q108.34-4.15 108.34-6.74L108.34-6.74 108.34-25.49Q108.34-28.61 107.95-29.3L107.95-29.3Q107.71-29.69 106.58-30.1 105.46-30.52 104.92-30.52L104.92-30.52Q104.73-30.52 104.73-31.35L104.73-31.35Q104.73-32.23 104.83-32.32L104.83-32.32Q111.56-32.03 111.91-32.03ZM141.05-23.88L141.05-23.88Q141.05-27.54 144.3-30.13 147.55-32.71 151.45-32.71L151.45-32.71Q152.48-32.71 153.58-32.57 154.68-32.42 155.43-32.28 156.19-32.13 157.53-31.81 158.88-31.49 159.66-31.35L159.66-31.35Q160.2-26.61 160.2-23.24L160.2-23.24Q160-22.75 159.46-22.75L159.46-22.75Q158.05-22.75 157.95-23.1L157.95-23.1Q157.61-25.54 155.85-27.76 154.09-29.98 151.5-29.98L151.5-29.98Q149.84-29.98 148.7-28.96 147.55-27.93 147.55-25.68L147.55-25.68Q147.55-24.71 148.04-23.78 148.53-22.85 149.67-21.88 150.82-20.9 151.55-20.41 152.28-19.92 153.95-18.85L153.95-18.85Q154.38-18.55 154.63-18.41L154.63-18.41Q155.02-18.16 156.24-17.43 157.46-16.7 157.97-16.33 158.49-15.97 159.39-15.14 160.29-14.31 160.71-13.5 161.12-12.7 161.46-11.4 161.81-10.11 161.81-8.54L161.81-8.54Q161.81-4.64 158.58-2.08 155.36 0.49 151.16 0.49L151.16 0.49Q147.3 0.49 141.88-0.78L141.88-0.78Q141.49-2.34 141.13-5.05 140.76-7.76 140.76-8.89L140.76-8.89Q140.91-9.38 141.64-9.38L141.64-9.38Q143.15-9.38 143.2-9.08L143.2-9.08Q143.59-6.84 145.64-4.57 147.7-2.29 150.19-2.29L150.19-2.29Q155.02-2.29 155.02-7.62L155.02-7.62Q155.02-8.45 154.58-9.25 154.14-10.06 153.26-10.84 152.38-11.62 151.7-12.11 151.02-12.6 149.77-13.38 148.53-14.16 148.18-14.4L148.18-14.4Q147.94-14.55 147.45-14.89L147.45-14.89Q145.84-15.97 145.01-16.6 144.18-17.24 143.08-18.36 141.98-19.48 141.52-20.83 141.05-22.17 141.05-23.88ZM203.16-8.79L203.16-8.79Q203.16-8.11 202.4-4.98 201.65-1.86 201.16-1.66L201.16-1.66Q195.69 0.34 190.17 0.34L190.17 0.34Q183.73 0.34 179.14-4.42 174.55-9.18 174.55-15.72L174.55-15.72Q174.55-22.66 179.16-27.61 183.77-32.57 190.66-32.57L190.66-32.57Q195.98-32.57 201.84-31.15L201.84-31.15Q202.08-31.1 202.45-27.88 202.82-24.66 202.82-23.93 202.82-23.19 201.5-23.19L201.5-23.19Q201.45-23.19 200.72-23.34L200.72-23.34Q200.47-24.22 199.91-25.2 199.35-26.17 198.25-27.29 197.15-28.42 195.22-29.13 193.3-29.83 190.9-29.83L190.9-29.83Q182.16-29.83 182.16-16.75L182.16-16.75Q182.16-10.64 184.85-6.47 187.53-2.29 192.47-2.29L192.47-2.29Q196.08-2.29 198.72-4.93L198.72-4.93Q199.35-5.57 199.86-6.67 200.38-7.76 200.64-8.52 200.91-9.28 200.96-9.28L200.96-9.28Q202.96-9.28 203.16-8.79ZM220.64-29.83L220.64-29.83Q218.05-29.83 216.34-27.95 214.63-26.07 213.97-23.34 213.31-20.61 213.31-17.09L213.31-17.09Q213.31-14.6 213.78-12.18 214.24-9.77 215.19-7.45 216.14-5.13 217.95-3.69 219.76-2.25 222.15-2.25L222.15-2.25Q225.81-2.25 227.64-5.96 229.47-9.67 229.47-15.09L229.47-15.09Q229.47-17.77 229.06-20.19 228.64-22.61 227.72-24.88 226.79-27.15 224.98-28.49 223.18-29.83 220.64-29.83ZM210.31-4.35Q205.7-9.18 205.7-16.02 205.7-22.85 210.31-27.71 214.92-32.57 221.37-32.57 227.81-32.57 232.45-27.71 237.09-22.85 237.09-16.02 237.09-9.18 232.45-4.35 227.81 0.49 221.37 0.49 214.92 0.49 210.31-4.35ZM266.97-14.11L266.97-25.59Q266.97-28.37 266.34-29.1L266.34-29.1Q265.9-29.64 264.51-30.08 263.11-30.52 262.53-30.52L262.53-30.52Q262.33-30.52 262.28-31.32 262.24-32.13 262.38-32.32L262.38-32.32Q266.87-31.93 268.83-31.93L268.83-31.93Q270.05-31.93 272.17-32.1 274.3-32.28 274.88-32.32L274.88-32.32Q275.08-31.93 275.08-31.45L275.08-31.45Q275.08-30.52 274.83-30.52L274.83-30.52Q272.15-30.52 270.78-28.91L270.78-28.91Q270.1-28.08 270.1-25.34L270.1-25.34 270.1-6.79Q270.1-5.03 270.29 0.05L270.29 0.05Q270.1 0.24 269.07 0.24L269.07 0.24Q268.49 0.24 267.56-0.88L267.56-0.88 247.69-25.59 247.69-6.88Q247.69-4.2 248.08-3.42L248.08-3.42Q248.52-2.59 250.13-2.12 251.74-1.66 252.47-1.66L252.47-1.66Q252.62-1.66 252.64-0.83 252.67 0 252.57 0.2L252.57 0.2Q252.13 0.2 249.69 0 247.25-0.2 245.98-0.2 244.71-0.2 242.75-0.02 240.8 0.15 239.92 0.2L239.92 0.2Q239.77 0.05 239.77-0.68L239.77-0.68Q239.77-1.61 239.92-1.61L239.92-1.61Q240.41-1.61 241.04-1.71 241.68-1.81 242.66-2.27 243.63-2.73 244.07-3.47L244.07-3.47Q244.56-4.25 244.56-7.03L244.56-7.03 244.56-26.22Q244.56-28.76 243.83-29.69L243.83-29.69Q243.58-30.03 242.12-30.27 240.65-30.52 239.97-30.52L239.97-30.52Q239.77-30.52 239.73-31.32 239.68-32.13 239.87-32.32L239.87-32.32Q240.65-32.28 242.97-32.1 245.29-31.93 246.56-31.93L246.56-31.93Q248.22-31.93 251.35-32.32L251.35-32.32Q252.18-30.66 254.59-27.51 257.01-24.37 260.82-19.73 264.63-15.09 266.87-12.11L266.87-12.11Q266.97-12.45 266.97-14.11L266.97-14.11ZM277.86-23.88L277.86-23.88Q277.86-27.54 281.11-30.13 284.35-32.71 288.26-32.71L288.26-32.71Q289.28-32.71 290.38-32.57 291.48-32.42 292.24-32.28 293-32.13 294.34-31.81 295.68-31.49 296.46-31.35L296.46-31.35Q297-26.61 297-23.24L297-23.24Q296.8-22.75 296.27-22.75L296.27-22.75Q294.85-22.75 294.75-23.1L294.75-23.1Q294.41-25.54 292.65-27.76 290.9-29.98 288.31-29.98L288.31-29.98Q286.65-29.98 285.5-28.96 284.35-27.93 284.35-25.68L284.35-25.68Q284.35-24.71 284.84-23.78 285.33-22.85 286.48-21.88 287.62-20.9 288.36-20.41 289.09-19.92 290.75-18.85L290.75-18.85Q291.19-18.55 291.43-18.41L291.43-18.41Q291.82-18.16 293.04-17.43 294.26-16.7 294.78-16.33 295.29-15.97 296.19-15.14 297.1-14.31 297.51-13.5 297.93-12.7 298.27-11.4 298.61-10.11 298.61-8.54L298.61-8.54Q298.61-4.64 295.39-2.08 292.17 0.49 287.97 0.49L287.97 0.49Q284.11 0.49 278.69-0.78L278.69-0.78Q278.3-2.34 277.93-5.05 277.57-7.76 277.57-8.89L277.57-8.89Q277.71-9.38 278.44-9.38L278.44-9.38Q279.96-9.38 280.01-9.08L280.01-9.08Q280.4-6.84 282.45-4.57 284.5-2.29 286.99-2.29L286.99-2.29Q291.82-2.29 291.82-7.62L291.82-7.62Q291.82-8.45 291.38-9.25 290.94-10.06 290.07-10.84 289.19-11.62 288.5-12.11 287.82-12.6 286.57-13.38 285.33-14.16 284.99-14.4L284.99-14.4Q284.74-14.55 284.25-14.89L284.25-14.89Q282.64-15.97 281.81-16.6 280.98-17.24 279.88-18.36 278.79-19.48 278.32-20.83 277.86-22.17 277.86-23.88ZM310.74-32.23Q314.04-32.08 316.09-32.08 318.14-32.08 321.46-32.23 324.78-32.37 326.83-32.37L326.83-32.37Q328.05-32.37 330.2-32.91L330.2-32.91 331.13-24.9Q330.79-24.56 329.71-24.56L329.71-24.56Q329.27-24.56 329.22-24.8L329.22-24.8Q328-29.64 324-29.64L324-29.64Q320.04-29.64 319.85-28.76L319.85-28.76Q319.46-27.39 319.46-24.41L319.46-24.41 319.46-6.79Q319.46-4.35 319.85-2.83L319.85-2.83Q319.95-2.49 321.19-2.05 322.44-1.61 322.88-1.61L322.88-1.61Q323.07-1.61 323.07-0.68L323.07-0.68Q323.07-0.1 322.97 0.2L322.97 0.2Q322.63 0.2 320.04 0 317.46-0.2 316.19-0.2L316.19-0.2Q314.87-0.2 312.33-0.02 309.79 0.15 309.11 0.2L309.11 0.2Q308.91 0 308.91-0.59L308.91-0.59Q308.91-1.61 309.06-1.61L309.06-1.61Q309.59-1.61 310.86-2.03 312.13-2.44 312.28-2.83L312.28-2.83Q312.62-4.15 312.62-6.59L312.62-6.59 312.62-24.27Q312.62-28.08 312.23-28.76L312.23-28.76Q312.08-29.05 311.96-29.17 311.84-29.3 310.91-29.47 309.98-29.64 308.23-29.64L308.23-29.64Q306.23-29.64 304.96-28.54 303.69-27.44 303-24.85L303-24.85Q302.95-24.61 302.51-24.61L302.51-24.61Q301.44-24.61 301.1-24.95L301.1-24.95 302.03-32.91Q304.17-32.37 305.39-32.37L305.39-32.37Q307.45-32.37 310.74-32.23ZM347.09-29.54L347.09-29.54Q345.38-29.54 344.85-29.15 344.31-28.76 344.26-24.37L344.26-24.37 344.26-19.09Q344.26-18.36 344.43-17.92 344.6-17.48 344.94-17.29 345.29-17.09 345.58-17.04 345.87-16.99 346.31-16.99L346.31-16.99 347.63-16.99Q349.53-16.99 350.58-18.65 351.63-20.31 351.63-23.05L351.63-23.05Q351.63-29.54 347.09-29.54ZM347.82-32.23L347.82-32.23Q349.48-32.23 351.29-31.81 353.1-31.4 354.9-30.52 356.71-29.64 357.88-27.95 359.05-26.27 359.05-24.02L359.05-24.02Q359.05-20.75 357.15-18.31 355.25-15.87 353.05-15.14L353.05-15.14Q352.66-14.99 352.9-14.6L352.9-14.6Q353.98-12.79 354.73-11.6 355.49-10.4 356.54-8.96 357.59-7.52 358.22-6.59L358.22-6.59Q359.45-4.79 361.42-3.2 363.4-1.61 365.26-1.61L365.26-1.61Q365.45-1.37 365.45-0.73L365.45-0.73Q365.45-0.2 365.26 0.24L365.26 0.24Q364.57 0.34 363.55 0.34L363.55 0.34Q361.15 0.34 359.18-0.12 357.2-0.59 356-1.17 354.81-1.76 353.61-2.93 352.41-4.1 351.83-4.88 351.24-5.66 350.27-7.18L350.27-7.18Q349.78-7.96 349-9.18 348.21-10.4 347.75-11.11 347.29-11.82 346.75-12.6 346.21-13.38 345.85-13.77 345.48-14.16 345.24-14.26L345.24-14.26Q345.09-14.31 344.7-14.31L344.7-14.31Q344.26-14.31 344.26-13.53L344.26-13.53 344.26-6.88Q344.26-4.39 344.6-2.88L344.6-2.88Q344.75-2.29 346.21-1.95 347.68-1.61 348.41-1.61L348.41-1.61Q348.61-1.61 348.61-0.68L348.61-0.68Q348.61-0.1 348.51 0.2L348.51 0.2Q342.65-0.1 341.04-0.1L341.04-0.1 333.91 0.2Q333.71 0 333.71-0.63L333.71-0.63Q333.71-1.61 333.91-1.61L333.91-1.61Q334.49-1.61 335.74-1.95 336.98-2.29 337.13-2.69L337.13-2.69Q337.42-3.81 337.42-6.98L337.42-6.98 337.42-25.44Q337.42-28.13 337.13-29.25L337.13-29.25Q336.98-29.64 335.69-30.13 334.4-30.62 333.86-30.62L333.86-30.62Q333.66-30.62 333.66-31.49L333.66-31.49Q333.66-32.28 333.81-32.42L333.81-32.42Q338.3-32.18 340.99-32.18L340.99-32.18Q342.31-32.18 344.33-32.2 346.36-32.23 347.82-32.23ZM375.36-32.03L375.36-32.03Q376.34-32.03 382.2-32.32L382.2-32.32Q382.34-31.88 382.34-31.45L382.34-31.45Q382.34-30.52 382.15-30.52L382.15-30.52Q381.71-30.52 380.39-30.1 379.07-29.69 378.97-29.35L378.97-29.35Q378.63-28.03 378.63-25.2L378.63-25.2 378.63-13.62Q378.63-9.13 380.66-6.4 382.68-3.66 386.15-3.66L386.15-3.66Q389.76-3.66 392.08-6.03 394.4-8.4 394.4-13.96L394.4-13.96 394.4-25.59Q394.4-28.37 393.77-29.1L393.77-29.1Q393.33-29.64 391.94-30.08 390.55-30.52 389.96-30.52L389.96-30.52Q389.76-30.52 389.72-31.32 389.67-32.13 389.81-32.32L389.81-32.32Q394.31-31.93 396.26-31.93L396.26-31.93Q397.48-31.93 399.6-32.1 401.73-32.28 402.31-32.32L402.31-32.32Q402.51-31.93 402.51-31.45L402.51-31.45Q402.51-30.52 402.26-30.52L402.26-30.52Q399.58-30.52 398.21-28.91L398.21-28.91Q397.53-28.08 397.53-25.34L397.53-25.34 397.53-14.21Q397.53-7.08 394.04-3.42 390.55 0.24 384.98 0.24L384.98 0.24Q379.02 0.24 375.41-3.47 371.8-7.18 371.8-15.19L371.8-15.19 371.8-25.49Q371.8-28.61 371.41-29.3L371.41-29.3Q371.16-29.69 370.04-30.1 368.92-30.52 368.38-30.52L368.38-30.52Q368.18-30.52 368.18-31.35L368.18-31.35Q368.18-32.23 368.28-32.32L368.28-32.32Q375.02-32.03 375.36-32.03ZM433.61-8.79L433.61-8.79Q433.61-8.11 432.85-4.98 432.1-1.86 431.61-1.66L431.61-1.66Q426.14 0.34 420.62 0.34L420.62 0.34Q414.18 0.34 409.59-4.42 405-9.18 405-15.72L405-15.72Q405-22.66 409.61-27.61 414.23-32.57 421.11-32.57L421.11-32.57Q426.43-32.57 432.29-31.15L432.29-31.15Q432.54-31.1 432.9-27.88 433.27-24.66 433.27-23.93 433.27-23.19 431.95-23.19L431.95-23.19Q431.9-23.19 431.17-23.34L431.17-23.34Q430.92-24.22 430.36-25.2 429.8-26.17 428.7-27.29 427.6-28.42 425.68-29.13 423.75-29.83 421.35-29.83L421.35-29.83Q412.61-29.83 412.61-16.75L412.61-16.75Q412.61-10.64 415.3-6.47 417.99-2.29 422.92-2.29L422.92-2.29Q426.53-2.29 429.17-4.93L429.17-4.93Q429.8-5.57 430.31-6.67 430.83-7.76 431.1-8.52 431.36-9.28 431.41-9.28L431.41-9.28Q433.41-9.28 433.61-8.79ZM445.74-32.23Q449.04-32.08 451.09-32.08 453.14-32.08 456.46-32.23 459.78-32.37 461.83-32.37L461.83-32.37Q463.05-32.37 465.2-32.91L465.2-32.91 466.13-24.9Q465.79-24.56 464.71-24.56L464.71-24.56Q464.27-24.56 464.22-24.8L464.22-24.8Q463-29.64 459-29.64L459-29.64Q455.04-29.64 454.85-28.76L454.85-28.76Q454.46-27.39 454.46-24.41L454.46-24.41 454.46-6.79Q454.46-4.35 454.85-2.83L454.85-2.83Q454.95-2.49 456.19-2.05 457.44-1.61 457.88-1.61L457.88-1.61Q458.07-1.61 458.07-0.68L458.07-0.68Q458.07-0.1 457.97 0.2L457.97 0.2Q457.63 0.2 455.04 0 452.46-0.2 451.19-0.2L451.19-0.2Q449.87-0.2 447.33-0.02 444.79 0.15 444.11 0.2L444.11 0.2Q443.91 0 443.91-0.59L443.91-0.59Q443.91-1.61 444.06-1.61L444.06-1.61Q444.59-1.61 445.86-2.03 447.13-2.44 447.28-2.83L447.28-2.83Q447.62-4.15 447.62-6.59L447.62-6.59 447.62-24.27Q447.62-28.08 447.23-28.76L447.23-28.76Q447.08-29.05 446.96-29.17 446.84-29.3 445.91-29.47 444.98-29.64 443.23-29.64L443.23-29.64Q441.22-29.64 439.96-28.54 438.69-27.44 438-24.85L438-24.85Q437.95-24.61 437.51-24.61L437.51-24.61Q436.44-24.61 436.1-24.95L436.1-24.95 437.03-32.91Q439.17-32.37 440.39-32.37L440.39-32.37Q442.45-32.37 445.74-32.23ZM472.37-6.74L472.37-25.49Q472.37-28.61 471.98-29.3L471.98-29.3Q471.74-29.69 470.62-30.1 469.49-30.52 468.96-30.52L468.96-30.52Q468.76-30.52 468.76-31.35L468.76-31.35Q468.76-32.23 468.86-32.32L468.86-32.32Q469.59-32.28 471.2-32.15 472.81-32.03 473.62-32.01 474.43-31.98 475.94-32.03L475.94-32.03Q476.92-32.03 482.78-32.32L482.78-32.32Q482.92-31.88 482.92-31.45L482.92-31.45Q482.92-30.52 482.73-30.52L482.73-30.52Q482.29-30.52 480.97-30.1 479.65-29.69 479.55-29.35L479.55-29.35Q479.41-28.76 479.31-27.71 479.21-26.66 479.21-25.93L479.21-25.93 479.21-25.2 479.21-7.13Q479.21-4.35 479.6-2.83L479.6-2.83Q479.7-2.49 480.94-2.05 482.19-1.61 482.63-1.61L482.63-1.61Q482.82-1.61 482.82-0.68L482.82-0.68Q482.82-0.1 482.73 0.2L482.73 0.2Q482.38 0.2 479.8 0 477.21-0.2 475.94-0.2L475.94-0.2Q474.62-0.2 472.08-0.02 469.54 0.15 468.86 0.2L468.86 0.2Q468.66 0 468.66-0.59L468.66-0.59Q468.66-1.61 468.81-1.61L468.81-1.61Q469.35-1.61 470.62-2.03 471.89-2.44 472.03-2.83L472.03-2.83Q472.37-4.15 472.37-6.74L472.37-6.74ZM500.45-29.83L500.45-29.83Q497.86-29.83 496.15-27.95 494.44-26.07 493.78-23.34 493.12-20.61 493.12-17.09L493.12-17.09Q493.12-14.6 493.59-12.18 494.05-9.77 495-7.45 495.96-5.13 497.76-3.69 499.57-2.25 501.96-2.25L501.96-2.25Q505.62-2.25 507.46-5.96 509.29-9.67 509.29-15.09L509.29-15.09Q509.29-17.77 508.87-20.19 508.46-22.61 507.53-24.88 506.6-27.15 504.79-28.49 502.99-29.83 500.45-29.83ZM490.12-4.35Q485.51-9.18 485.51-16.02 485.51-22.85 490.12-27.71 494.74-32.57 501.18-32.57 507.63-32.57 512.26-27.71 516.9-22.85 516.9-16.02 516.9-9.18 512.26-4.35 507.63 0.49 501.18 0.49 494.74 0.49 490.12-4.35ZM546.78-14.11L546.78-25.59Q546.78-28.37 546.15-29.1L546.15-29.1Q545.71-29.64 544.32-30.08 542.93-30.52 542.34-30.52L542.34-30.52Q542.14-30.52 542.1-31.32 542.05-32.13 542.19-32.32L542.19-32.32Q546.69-31.93 548.64-31.93L548.64-31.93Q549.86-31.93 551.98-32.1 554.11-32.28 554.69-32.32L554.69-32.32Q554.89-31.93 554.89-31.45L554.89-31.45Q554.89-30.52 554.64-30.52L554.64-30.52Q551.96-30.52 550.59-28.91L550.59-28.91Q549.91-28.08 549.91-25.34L549.91-25.34 549.91-6.79Q549.91-5.03 550.1 0.05L550.1 0.05Q549.91 0.24 548.88 0.24L548.88 0.24Q548.3 0.24 547.37-0.88L547.37-0.88 527.5-25.59 527.5-6.88Q527.5-4.2 527.89-3.42L527.89-3.42Q528.33-2.59 529.94-2.12 531.55-1.66 532.28-1.66L532.28-1.66Q532.43-1.66 532.45-0.83 532.48 0 532.38 0.2L532.38 0.2Q531.94 0.2 529.5 0 527.06-0.2 525.79-0.2 524.52-0.2 522.56-0.02 520.61 0.15 519.73 0.2L519.73 0.2Q519.59 0.05 519.59-0.68L519.59-0.68Q519.59-1.61 519.73-1.61L519.73-1.61Q520.22-1.61 520.86-1.71 521.49-1.81 522.47-2.27 523.44-2.73 523.88-3.47L523.88-3.47Q524.37-4.25 524.37-7.03L524.37-7.03 524.37-26.22Q524.37-28.76 523.64-29.69L523.64-29.69Q523.39-30.03 521.93-30.27 520.47-30.52 519.78-30.52L519.78-30.52Q519.59-30.52 519.54-31.32 519.49-32.13 519.68-32.32L519.68-32.32Q520.47-32.28 522.78-32.1 525.1-31.93 526.37-31.93L526.37-31.93Q528.03-31.93 531.16-32.32L531.16-32.32Q531.99-30.66 534.41-27.51 536.82-24.37 540.63-19.73 544.44-15.09 546.69-12.11L546.69-12.11Q546.78-12.45 546.78-14.11L546.78-14.11Z" opacity="1" transform="matrix(1,0,0,1,0,0)" fill="#ffffff" class="wordmark-text-0" data-fill-palette-color="primary" id="text-0"></path></svg></g></svg></g><g transform="matrix(1,0,0,1,0,31.079738062239507)"><svg viewBox="0 0 174.51865891395977 19.087092688949642" height="19.087092688949642" width="174.51865891395977"><g transform="matrix(1,0,0,1,0,0)"><svg width="174.51865891395977" viewBox="0.5400000214576721 -32.63999938964844 300.6499938964844 32.880001068115234" height="19.087092688949642" data-palette-color="#173f35"><path d="M2.39 0.07Q1.42 0.07 0.98-0.11 0.54-0.29 0.54-0.66L0.54-0.66Q0.54-0.83 0.66-1.25L0.66-1.25 10.94-29.79Q11.18-30.49 12.67-30.49L12.67-30.49 13.94-30.49Q15.43-30.49 15.67-29.79L15.67-29.79 25.95-1.22Q26.07-0.95 26.07-0.66L26.07-0.66Q26.07 0.07 24.24 0.07L24.24 0.07 23.88 0.07Q22.36 0.07 22.12-0.61L22.12-0.61 19.58-7.74 6.84-7.74 4.35-0.61Q4.13 0.07 2.61 0.07L2.61 0.07 2.39 0.07ZM8.03-11.04L18.41-11.04 13.87-23.95Q13.67-24.49 13.55-25.17 13.43-25.85 13.33-26.49L13.33-26.49 13.23-26.49Q12.94-24.85 12.57-23.95L12.57-23.95 8.03-11.04ZM32.1 0.07Q31.17 0.07 30.76-0.16 30.34-0.39 30.34-0.88L30.34-0.88 30.34-16.11Q30.34-18.95 30.08-20.2 29.81-21.46 29.81-21.58L29.81-21.58Q29.81-22.12 30.62-22.35 31.44-22.58 32.18-22.58L32.18-22.58Q32.79-22.58 33.08-21.92 33.37-21.26 33.51-20.58 33.64-19.9 33.69-19.7L33.69-19.7Q35.06-21.24 36.85-22.09 38.64-22.95 40.48-22.95L40.48-22.95Q43.8-22.95 45.66-21.08 47.53-19.21 47.53-15.94L47.53-15.94 47.53-0.88Q47.53-0.39 47.12-0.16 46.7 0.07 45.8 0.07L45.8 0.07 45.6 0.07Q44.72 0.07 44.31-0.16 43.89-0.39 43.89-0.88L43.89-0.88 43.89-15.58Q43.89-17.58 42.73-18.69 41.57-19.8 39.48-19.8L39.48-19.8Q38.01-19.8 36.53-18.98 35.06-18.16 33.98-16.75L33.98-16.75 33.98-0.88Q33.98-0.39 33.57-0.16 33.15 0.07 32.27 0.07L32.27 0.07 32.1 0.07ZM61.45 0.24Q58.91 0.24 57-1.23 55.1-2.71 54.06-5.35 53.02-7.98 53.02-11.33L53.02-11.33Q53.02-15.01 54.13-17.64 55.24-20.26 57.25-21.61 59.25-22.95 61.86-22.95L61.86-22.95Q63.74-22.95 65.19-22.39 66.65-21.83 68.06-20.75L68.06-20.75 68.06-31.69Q68.06-32.64 69.77-32.64L69.77-32.64 69.97-32.64Q71.7-32.64 71.7-31.69L71.7-31.69 71.7-6.42Q71.7-3.59 71.97-2.33 72.24-1.07 72.24-0.95L72.24-0.95Q72.24-0.42 71.42-0.18 70.6 0.05 69.89 0.05L69.89 0.05Q69.4 0.05 69.11-0.42 68.82-0.88 68.71-1.35 68.6-1.83 68.35-3L68.35-3Q65.25 0.24 61.45 0.24L61.45 0.24ZM62.2-2.91Q63.64-2.91 65.19-3.69 66.74-4.47 68.06-5.91L68.06-5.91 68.06-17.8Q65.72-19.75 62.71-19.75L62.71-19.75Q59.81-19.68 58.33-17.63 56.86-15.58 56.86-11.67L56.86-11.67Q56.86-7.47 58.23-5.19 59.61-2.91 62.2-2.91L62.2-2.91ZM91.69 0.07Q89.93 0.07 89.93-0.88L89.93-0.88 89.93-29.08Q89.93-29.76 90.25-30.07 90.57-30.37 91.25-30.37L91.25-30.37 98.55-30.37Q103.75-30.37 106.37-28.54 109-26.71 109-22.71L109-22.71Q109-20 107.69-18.15 106.39-16.31 104.02-15.38L104.02-15.38 104.02-15.21Q105.29-14.77 106.11-13.51 106.92-12.26 107.92-9.79L107.92-9.79 111.32-1.22Q111.44-0.78 111.44-0.61L111.44-0.61Q111.44 0.07 109.61 0.07L109.61 0.07 109.17 0.07Q108.51 0.07 108.03-0.11 107.56-0.29 107.44-0.61L107.44-0.61 104.14-9.13Q103.51-10.79 102.65-11.72 101.8-12.65 100.62-13.01 99.45-13.38 97.67-13.38L97.67-13.38 93.76-13.38 93.76-0.88Q93.76 0.07 92.03 0.07L92.03 0.07 91.69 0.07ZM93.76-16.67L99.48-16.67Q101.02-16.67 102.3-17.41 103.58-18.14 104.32-19.37 105.07-20.61 105.07-22L105.07-22Q105.07-24.56 103.51-25.82 101.94-27.08 99.18-27.08L99.18-27.08 93.76-27.08 93.76-16.67ZM125.26 0.24Q119.86 0.24 117.24-2.58 114.61-5.4 114.61-11.21L114.61-11.21Q114.61-16.97 117.18-19.96 119.74-22.95 124.72-22.95L124.72-22.95Q129.16-22.95 131.42-20.07 133.68-17.19 133.68-11.62L133.68-11.62Q133.68-11.38 133.42-10.95 133.17-10.52 132.81-10.19 132.46-9.86 132.21-9.86L132.21-9.86 118.52-9.86Q118.79-6.23 120.39-4.55 121.98-2.88 125.21-2.88L125.21-2.88Q127.01-2.88 128.32-3.32 129.63-3.76 130.85-4.39L130.85-4.39Q130.97-4.44 131.21-4.57 131.46-4.69 131.55-4.69L131.55-4.69Q131.82-4.69 132.18-4.26 132.53-3.83 132.79-3.31 133.04-2.78 133.04-2.54L133.04-2.54Q133.04-2 131.97-1.34 130.9-0.68 129.1-0.22 127.31 0.24 125.26 0.24L125.26 0.24ZM118.52-12.99L129.8-12.99Q129.8-19.82 124.6-19.82L124.6-19.82Q119.01-19.82 118.52-12.99L118.52-12.99ZM141.12 0.07Q140.19 0.07 139.78-0.16 139.36-0.39 139.36-0.88L139.36-0.88 139.36-16.11Q139.36-18.95 139.1-20.2 138.83-21.46 138.83-21.58L138.83-21.58Q138.83-22.12 139.65-22.35 140.46-22.58 141.2-22.58L141.2-22.58Q141.81-22.58 142.1-21.92 142.39-21.26 142.53-20.58 142.66-19.9 142.71-19.7L142.71-19.7Q144.08-21.24 145.87-22.09 147.67-22.95 149.5-22.95L149.5-22.95Q152.82-22.95 154.68-21.08 156.55-19.21 156.55-15.94L156.55-15.94 156.55-0.88Q156.55-0.39 156.14-0.16 155.72 0.07 154.82 0.07L154.82 0.07 154.62 0.07Q153.74 0.07 153.33-0.16 152.91-0.39 152.91-0.88L152.91-0.88 152.91-15.58Q152.91-17.58 151.76-18.69 150.6-19.8 148.5-19.8L148.5-19.8Q147.03-19.8 145.55-18.98 144.08-18.16 143-16.75L143-16.75 143-0.88Q143-0.39 142.59-0.16 142.17 0.07 141.29 0.07L141.29 0.07 141.12 0.07ZM172.25 0.24Q167.34 0.24 164.77-2.7 162.19-5.64 162.19-11.25L162.19-11.25Q162.19-16.87 164.8-19.91 167.41-22.95 172.25-22.95L172.25-22.95Q177.03-22.95 179.57-19.93 182.11-16.92 182.11-11.25L182.11-11.25Q182.11-5.62 179.61-2.69 177.11 0.24 172.25 0.24L172.25 0.24ZM172.13-2.88Q175.3-2.88 176.81-4.94 178.33-7.01 178.33-11.33L178.33-11.33Q178.33-15.67 176.81-17.75 175.3-19.82 172.13-19.82L172.13-19.82Q168.98-19.82 167.49-17.76 166-15.7 166-11.33L166-11.33Q166-6.98 167.48-4.93 168.95-2.88 172.13-2.88L172.13-2.88ZM194.29 0.07Q192.75 0.07 192.53-0.61L192.53-0.61 185.55-21.48Q185.4-21.92 185.4-22.05L185.4-22.05Q185.4-22.39 185.87-22.58 186.33-22.78 187.28-22.78L187.28-22.78 187.5-22.78Q189.02-22.78 189.24-22.09L189.24-22.09 193.66-8.25Q194.19-6.64 194.9-3.86L194.9-3.86 195.17-2.83 195.37-2.83 195.66-4.13Q196.2-6.69 196.66-8.15L196.66-8.15 201.13-22.09Q201.35-22.78 202.91-22.78L202.91-22.78 203.03-22.78Q204.67-22.78 204.67-22.05L204.67-22.05Q204.67-21.8 204.5-21.46L204.5-21.46 197.54-0.61Q197.32 0.07 195.78 0.07L195.78 0.07 194.29 0.07ZM215.09 0.24Q211.77 0.24 209.72-1.39 207.67-3.03 207.67-6.25L207.67-6.25Q207.67-9.64 209.74-11.36 211.82-13.09 214.81-13.59 217.8-14.09 222.07-14.16L222.07-14.16 222.07-16.21Q222.07-17.85 220.96-18.84 219.85-19.82 217.31-19.82L217.31-19.82Q215.38-19.82 213.93-19.37 212.48-18.92 211.21-18.29L211.21-18.29Q210.67-18.02 210.55-18.02L210.55-18.02Q210.26-18.02 209.9-18.44 209.55-18.87 209.29-19.41 209.04-19.95 209.04-20.19L209.04-20.19Q209.04-20.75 210.19-21.41 211.35-22.07 213.23-22.51 215.11-22.95 217.17-22.95L217.17-22.95Q221.24-22.95 223.49-21.17 225.73-19.38 225.73-16.16L225.73-16.16 225.73-6.42Q225.73-3.59 225.99-2.33 226.25-1.07 226.25-0.95L226.25-0.95Q226.25-0.42 225.43-0.18 224.61 0.05 223.9 0.05L223.9 0.05Q223.32 0.05 223.04-0.61 222.76-1.27 222.49-2.51L222.49-2.51 222.39-3Q221.05-1.51 219.23-0.63 217.41 0.24 215.09 0.24L215.09 0.24ZM215.29-2.91Q217.43-2.91 218.95-3.69 220.46-4.47 222.07-5.91L222.07-5.91 222.07-11.04Q218.85-11.01 216.77-10.77 214.7-10.52 213.14-9.53 211.57-8.54 211.57-6.47L211.57-6.47Q211.57-4.74 212.51-3.82 213.45-2.91 215.29-2.91L215.29-2.91ZM239.45 0.24Q237.28 0.24 235.57-1.07 233.86-2.39 233.86-5.74L233.86-5.74 233.86-19.58 231.69-19.58Q231.23-19.58 231.02-19.89 230.81-20.19 230.81-20.87L230.81-20.87 230.81-21.41Q230.81-22.09 231.02-22.4 231.23-22.71 231.69-22.71L231.69-22.71 233.86-22.71 234.37-27.25Q234.42-28.2 235.77-28.2L235.77-28.2 236.18-28.2Q236.86-28.2 237.18-27.97 237.5-27.73 237.5-27.25L237.5-27.25 237.5-22.71 241.14-22.71Q241.6-22.71 241.81-22.4 242.02-22.09 242.02-21.41L242.02-21.41 242.02-20.87Q242.02-20.19 241.81-19.89 241.6-19.58 241.14-19.58L241.14-19.58 237.5-19.58 237.5-6.08Q237.5-4.3 238.12-3.59 238.74-2.88 239.82-2.88L239.82-2.88Q240.65-2.88 241.1-2.98 241.55-3.08 241.7-3.08L241.7-3.08Q242.09-3.08 242.35-2.29 242.6-1.51 242.6-1.05L242.6-1.05Q242.6 0.24 239.45 0.24L239.45 0.24ZM249.58-28.17Q247.85-28.17 247.85-29.13L247.85-29.13 247.85-31.69Q247.85-32.64 249.58-32.64L249.58-32.64 250.09-32.64Q251.85-32.64 251.85-31.69L251.85-31.69 251.85-29.13Q251.85-28.17 250.09-28.17L250.09-28.17 249.58-28.17ZM249.75 0.07Q248.02 0.07 248.02-0.88L248.02-0.88 248.02-21.83Q248.02-22.78 249.75-22.78L249.75-22.78 249.92-22.78Q251.68-22.78 251.68-21.83L251.68-21.83 251.68-0.88Q251.68 0.07 249.92 0.07L249.92 0.07 249.75 0.07ZM268.01 0.24Q263.1 0.24 260.53-2.7 257.95-5.64 257.95-11.25L257.95-11.25Q257.95-16.87 260.57-19.91 263.18-22.95 268.01-22.95L268.01-22.95Q272.8-22.95 275.34-19.93 277.88-16.92 277.88-11.25L277.88-11.25Q277.88-5.62 275.37-2.69 272.87 0.24 268.01 0.24L268.01 0.24ZM267.89-2.88Q271.06-2.88 272.58-4.94 274.09-7.01 274.09-11.33L274.09-11.33Q274.09-15.67 272.58-17.75 271.06-19.82 267.89-19.82L267.89-19.82Q264.74-19.82 263.25-17.76 261.76-15.7 261.76-11.33L261.76-11.33Q261.76-6.98 263.24-4.93 264.72-2.88 267.89-2.88L267.89-2.88ZM285.76 0.07Q284.83 0.07 284.42-0.16 284-0.39 284-0.88L284-0.88 284-16.11Q284-18.95 283.73-20.2 283.46-21.46 283.46-21.58L283.46-21.58Q283.46-22.12 284.28-22.35 285.1-22.58 285.83-22.58L285.83-22.58Q286.44-22.58 286.74-21.92 287.03-21.26 287.16-20.58 287.3-19.9 287.35-19.7L287.35-19.7Q288.71-21.24 290.51-22.09 292.3-22.95 294.13-22.95L294.13-22.95Q297.45-22.95 299.32-21.08 301.19-19.21 301.19-15.94L301.19-15.94 301.19-0.88Q301.19-0.39 300.77-0.16 300.36 0.07 299.45 0.07L299.45 0.07 299.26 0.07Q298.38 0.07 297.97-0.16 297.55-0.39 297.55-0.88L297.55-0.88 297.55-15.58Q297.55-17.58 296.39-18.69 295.23-19.8 293.13-19.8L293.13-19.8Q291.67-19.8 290.19-18.98 288.71-18.16 287.64-16.75L287.64-16.75 287.64-0.88Q287.64-0.39 287.22-0.16 286.81 0.07 285.93 0.07L285.93 0.07 285.76 0.07Z" opacity="1" transform="matrix(1,0,0,1,0,0)" fill="#ffffff" class="slogan-text-1" data-fill-palette-color="secondary" id="text-1"></path></svg></g></svg></g></svg></g></svg></g></svg></g><defs></defs></svg><rect width="395.52" height="49.91724452854642" fill="none" stroke="none" visibility="hidden"></rect></g></svg></g></svg>